<svg id="Capa_1" data-name="Capa 1" xmlns="http://www.w3.org/2000/svg" viewBox="0 0 1280 100"><defs><style>.cls-1{fill:#ed1c24;}.cls-2{fill:#ff0;}.cls-3{fill:#c1272d;}.cls-4{fill:#f7931e;}</style></defs><title>graphic</title><path d="M126.77,33.69q38.12,25.67,74,54.48,8.85,7.11,17.55,14.42c5.72,4.8,11.28,9.84,17.1,14.52,5.45,4.39,11.31,7.92,18.29,9.16,7.42,1.33,15.19,1.11,22.71,1a284.34,284.34,0,0,0,52.68-5.78c1.89-.39,1.09-3.28-.8-2.9a281,281,0,0,1-46.52,5.55,197.64,197.64,0,0,1-23.09-.22,35.84,35.84,0,0,1-10.72-2.38,40.08,40.08,0,0,1-8.55-5.07c-5.73-4.29-11-9.25-16.45-13.86q-8.67-7.34-17.5-14.47Q187.91,73.94,169.8,60.48,149.39,45.32,128.28,31.1c-1.6-1.08-3.11,1.52-1.51,2.59Z"/><path d="M238.8,53.81a895.37,895.37,0,0,0,95.94-7.72c31.65-4.13,63.11-9.53,94.48-15.39,17.8-3.32,35.57-6.79,53.34-10.27l-1.69-.69c3,5.68-.71,12.26-3.38,17.32q-4.44,8.41-8.1,17.21A205,205,0,0,0,458,90.82q-2,9.32-3.07,18.78c-.75,6.38-1.33,12.85-.28,19.23,1.86,11.27,9.6,20.29,18.36,27.1,19,14.74,42.69,22.22,66,26.42,12.19,2.19,25,4.37,37.4,3.48a50.57,50.57,0,0,0,30.12-12.46c18.07-15.85,23.43-40.65,21.72-63.75-.22-3.06-.58-6.1-1-9.14-.26-1.9-3.15-1.09-2.89.8,3.18,22.92.56,48.28-15.82,65.94A47.7,47.7,0,0,1,581,182.31c-12.25,1.94-25.09-.18-37.21-2.18-22.94-3.78-45.93-10.44-65.22-23.82-8.8-6.11-17.31-14.21-20.26-24.84-1.75-6.32-1.32-13-.65-19.42q1-9.24,2.81-18.37A206.32,206.32,0,0,1,471.08,58q3.45-8.64,7.7-16.93c2.54-5,5.65-10,6.15-15.64a12.69,12.69,0,0,0-1.47-7.2,1.53,1.53,0,0,0-1.7-.69c-31.32,6.12-62.65,12.24-94.12,17.55s-63.23,9.83-95.1,12.67c-17.87,1.59-35.8,2.65-53.74,3.05-1.93,0-1.93,3,0,3Z"/><path d="M224.91-3a581.76,581.76,0,0,1,86.88-25.22q11.15-2.31,22.39-4.18,5.47-.91,11-1.72c3.2-.47,6.83-1.41,10.06-.73,3.42.73,4.15,3.79,4.56,6.84.46,3.43.89,6.86,1.35,10.3C362-10.79,363-3.91,364.17,3c4.53,27.25,11.48,54.61,25.63,78.6,13.39,22.69,32.7,41.31,54.05,56.5,23.93,17,50.53,29.79,77.15,42l10,4.54-.3-2.35-18.54,16.12,1.06-.43-24.91,2.73c-1.9.21-1.92,3.21,0,3l12.76-1.4,6.38-.7,3-.33a16.23,16.23,0,0,0,3.13-.36,7,7,0,0,0,2-1.59l2.32-2,4.87-4.23,10-8.67a1.51,1.51,0,0,0-.31-2.36c-27.19-12.36-54.55-24.79-79.53-41.31-22.19-14.66-42.61-32.77-57.19-55.19-15.3-23.53-23-50.86-27.82-78.24-1.23-6.94-2.3-13.91-3.27-20.89q-.74-5.28-1.42-10.58c-.4-3.13-.45-6.67-1.94-9.52-3.12-6-11-4.09-16.38-3.31q-11.28,1.65-22.48,3.73A580.77,580.77,0,0,0,234.54-9.68q-5.23,1.86-10.42,3.82c-1.79.67-1,3.57.79,2.89Z"/><path d="M120.75,47.35a386.8,386.8,0,0,0,122.56-5.41c1.89-.39,1.09-3.27-.8-2.89a375.27,375.27,0,0,0-98.27,34.22A1.51,1.51,0,0,0,144.6,76c23.18,4.91,46.66-1.17,69.31-6l35.67-7.64c6.26-1.34,12.58-3.06,18.95-3.82,6.12-.72,11.79.46,17.54,2.49,10.85,3.83,21.43,7.3,32.84,9.12A239.51,239.51,0,0,0,352,72.79c22.53.42,45.31-.07,67.79-1.71,24.43-1.77,48.83-6,71.22-16.3a1.51,1.51,0,0,0,.3-2.35c-7-7.26-20.4-4-23.52,5.47a1.52,1.52,0,0,0,1,1.85,123.59,123.59,0,0,0,94.88-18.42,1.52,1.52,0,0,0-.36-2.74c-5.49-1.75-12.51-3.51-17.53.38-4.12,3.19-4.5,8.73-2.53,13.24,2.46,5.63,7.84,8.55,13.7,9.55,7.71,1.32,15.86.55,23.64.48q53.36-.5,106.7.11,30.25.34,60.51,1c1.93,0,1.93-3,0-3q-47.4-1.08-94.83-1.3-23.4-.12-46.8,0-11.54,0-23.08.15c-7.35.06-14.84.57-22.18,0-7.07-.53-15.55-3.74-15.85-12.07-.35-9.77,11.57-7.56,17.45-5.68l-.36-2.75a120.61,120.61,0,0,1-92.56,18.12l1,1.84c2.44-7.42,13.14-9.72,18.51-4.15l.3-2.36C469.18,61.58,447,65.76,424.85,67.68c-21.86,1.89-44,2.24-65.91,2.18-22.66-.06-45.44-1.82-66.83-9.79-4.92-1.83-9.83-3.8-15.07-4.52-5.46-.74-10.84.2-16.18,1.32-11.69,2.45-23.37,5-35.05,7.51-13.15,2.81-26.28,5.92-39.54,8.2-13.52,2.33-27.36,3.4-40.88.54l.36,2.74a372.67,372.67,0,0,1,97.56-33.92l-.8-2.89a384.39,384.39,0,0,1-121.76,5.3c-1.92-.22-1.9,2.78,0,3Z"/><path class="cls-1" d="M185.06,69a20.39,20.39,0,0,1-10.51-11l-1.05,1.84a944.79,944.79,0,0,1,101.11-11c16.42-.88,33.26-2.15,49.69-1,15.88,1.06,29.76,9.47,45.06,13.14,29.25,7,59.88,4.38,89.14-1.16,16.43-3.11,32.72-7.67,49.53-8.24s33.25,2.09,49.86,3.15C624.66,59,690.82,46.27,757,39.44c16.23-1.68,32.64-3.32,48.95-2,15.35,1.23,29.62,5.86,43.48,12.42C873.47,61.24,896.59,77,923.82,79.3c31,2.57,60.43-12,88.11-24l92.67-40.09L1128,5.13a1.51,1.51,0,0,0-.36-2.74,64.33,64.33,0,0,0-24.58.17c-1.9.38-1.1,3.28.79,2.9a60.08,60.08,0,0,1,23-.18l-.36-2.74-92.67,40.1c-15.48,6.69-30.88,13.59-46.48,20-15.05,6.19-30.69,11.77-47,13.44-30.12,3.09-55.3-11.6-81.14-24.74-11.77-6-23.92-11.56-36.87-14.49-15.44-3.49-31.43-3.29-47.13-2.11-66.07,5-131.34,18.9-197.86,17.73-16.59-.29-33-2.11-49.52-3.36a173.38,173.38,0,0,0-48.21,3.25c-31,6.3-62.09,12.46-93.87,8.51a140.41,140.41,0,0,1-23-4.83c-7.25-2.19-14.1-5.38-21.24-7.86-14.48-5-30.27-3.7-45.33-3.24a942.29,942.29,0,0,0-98.41,8.23q-12.54,1.71-25,3.76a1.5,1.5,0,0,0-1,1.85A23.27,23.27,0,0,0,183.55,71.6c1.73.83,3.26-1.76,1.51-2.59Z"/><path class="cls-1" d="M833,18.36A591.52,591.52,0,0,1,671,49.77c-56.51,3-113.29.29-169.82-1L332.07,45c-56.8-1.27-113.66-1.87-170.43-3.85-16-.56-31.11-3.66-46.76-6.61a407.92,407.92,0,0,0-44.73-5.76c-30.93-2.37-62-1.88-93-1.4-1.92,0-1.93,3,0,3,27.68-.43,55.39-.86,83,.74,14.2.82,28.37,2.16,42.43,4.35,13.16,2,26.1,5.5,39.31,7.21,13.74,1.78,27.68,1.69,41.5,2l42.71,1,85.4,1.91L483.23,51.4c56.61,1.26,113.4,3.89,170,2.12C707.91,51.81,762,43.74,814.36,27.6q9.75-3,19.39-6.35c1.81-.63,1-3.52-.8-2.89Z"/><path class="cls-1" d="M78.17,14.38a79.37,79.37,0,0,0-6.65,24.27c-.28,2.53-.63,5.27.15,7.76,1.39,4.44,5.86,6.22,10.07,7,5.64,1,11.43,1.48,17.15,1.9q10.32.77,20.67.66a1.5,1.5,0,0,0,0-3A246.88,246.88,0,0,1,86.39,51c-3.6-.45-8.92-.69-11.17-4-1.32-2-1.06-4.5-.86-6.73a72.32,72.32,0,0,1,1.12-7.75A76.53,76.53,0,0,1,80.77,15.9c.78-1.75-1.81-3.28-2.6-1.52Z"/><path class="cls-1" d="M161.54,51.13c7.18-2.69,13.6,3.52,19,7.33A27.12,27.12,0,0,0,190.25,63a62.85,62.85,0,0,0,10.6,1.15c4.15.22,8.3.49,12.27,1.84,1.83.62,2.62-2.27.8-2.89-7.14-2.43-14.74-1.38-22-2.81a25.5,25.5,0,0,1-10-4.52c-3.07-2.18-6-4.69-9.37-6.33-3.65-1.74-7.85-2.63-11.75-1.17-1.79.67-1,3.57.8,2.89Z"/><path class="cls-1" d="M266.52,22.37c5.54-6.41,15.55-5,21.08.61,6.08,6.17,6.8,14.71,7.2,22.89.32,6.5.46,14.07,4.63,19.46,5.63,7.27,15,5.2,22.73,3.37C361.57,59.33,398.42,42,436.7,29.18c10.73-3.61,21.58-6.86,32.59-9.48,4.92-1.18,11.19-3.28,16-.81,3.14,1.61,5.25,7.38,1.3,9.31-1.27.62-.74,2.32.36,2.74,8.85,3.33,17.68-1.83,25-6.49a144.1,144.1,0,0,1,26.31-13.68,132.67,132.67,0,0,1,14-4.45A27.86,27.86,0,0,1,558.83,5c3.13,0,4,2.32,4.3,5,.64,5.23,1,10.52,1.42,15.77.36,4,0,9.28,3.27,12.18,2.64,2.34,6.53,2.33,9.83,1.9a97.76,97.76,0,0,0,14.22-3.21C601.49,33.93,611,30.37,621,29c8.64-1.19,18-.81,26,3.11s12.26,11,16.93,18.13S674.18,64.17,682.94,66a25.12,25.12,0,0,0,23.11-6.89c1.34-1.39-.78-3.51-2.12-2.12a22.07,22.07,0,0,1-21.37,5.84c-8.07-2.16-12.85-9.1-17.16-15.73s-8.7-13.11-15.78-17c-7.25-4-15.79-5.08-24-4.59-9.33.56-18.31,3.31-27.2,6-4.79,1.47-9.59,2.94-14.47,4.07-3.87.89-9,2.51-12.9.89-2.22-.93-2.81-3.05-3.06-5.26-.31-2.82-.51-5.66-.76-8.49-.44-4.85-.51-9.92-1.43-14.71-1.87-9.77-13.69-5-20-3.07a132.06,132.06,0,0,0-29,12.79c-8.42,5-18.62,14.21-29.13,10.26l.36,2.74c2.93-1.43,4-4.65,3.46-7.73a9.41,9.41,0,0,0-6.4-7.46c-4.38-1.54-9.2-.51-13.58.48-5.19,1.17-10.36,2.5-15.48,3.94-20.82,5.84-41,13.58-61.2,21.29s-40.38,15.45-61.19,21.28c-5.13,1.44-10.3,2.77-15.49,3.94-4.9,1.09-10.56,2.09-14.8-1.33-5.85-4.72-5.4-14.33-5.73-21.08-.47-9.23-2.25-18.89-9.93-25-6.71-5.32-17.51-5.69-23.39,1.12-1.26,1.46.86,3.59,2.12,2.12Z"/><path class="cls-2" d="M178.85,40.55c33,16.81,70.94,16.71,106.9,13.14,40.4-4,80.56-10.69,120.67-16.85,41.43-6.36,82.9-12.6,124.64-16.53,20.53-1.93,41.17-3.48,61.79-3.85,2.21,0,5.17-.15,6.5,2,1.06,1.7.19,4-.41,5.74-1.15,3.27-2.91,6.58-2.73,10.14.41,7.6,7.88,12,14.65,12.94,4.56.65,9.19.26,13.77.26,4.89,0,9.77.24,14.64.63,10.19.83,20.3,2.35,30.38,3.95,19.36,3.06,38.9,6.47,58.57,5.64a131.09,131.09,0,0,0,13.86-1.36c1.9-.28,1.1-3.17-.8-2.89-39.55,5.93-78.24-9.22-117.69-9-7.93.05-21.42,1.39-24.13-8.74-1.71-6.38,6.59-13.4,2.1-19.41-2-2.76-5.55-3-8.71-2.94-5.12.09-10.24.32-15.35.56q-15.32.69-30.61,1.92c-41,3.24-81.66,9-122.27,15.11C383.7,37.24,342.84,43.9,301.75,48.91c-35.86,4.36-73.95,7.47-108.54-5.3A118.36,118.36,0,0,1,180.36,38c-1.71-.88-3.23,1.71-1.51,2.59Z"/><path class="cls-2" d="M823.14,57.5a385,385,0,0,0,136.88,0,381.38,381.38,0,0,0,66.28-18.24c11-4.14,21.62-9.22,32.56-13.55a89.92,89.92,0,0,1,17-5.12,78.28,78.28,0,0,1,19.1-.78c23,1.49,49.45,9,69.47-6.72L1162.28,11c-11.06,9-25.23,12.57-39,15-16.17,2.81-32.52,4.65-48.86,6.13-33.25,3-66.64,4.7-100,6.48-33.53,1.8-67.14,3.89-100.72,4.34-16.57.22-33-.89-49.56-1.57a203.07,203.07,0,0,0-24.67.24c-8.26.66-16.45,1.89-24.66,2.94a182.47,182.47,0,0,1-24.26,1.79c-8.26-.07-16.48-1-24.72-1.43-13.71-.77-28.32-.13-40.47,7a39.84,39.84,0,0,0-7.46,5.72l2.12,2.12c6.54-7,18.33-7.94,25.75-1.72,1.47,1.23,3.6-.88,2.12-2.12-8.64-7.24-22.26-6.58-30,1.72a1.5,1.5,0,0,0,2.12,2.12c10.35-10,25.3-12.36,39.16-12.13,8.26.13,16.47,1,24.71,1.47a154.3,154.3,0,0,0,24.41-.81c16.44-1.78,32.57-4.5,49.18-4.17s33,1.86,49.54,1.84c33.55-.05,67.17-2.27,100.67-4s66.76-3.46,100-6.26c16.29-1.37,32.55-3.12,48.71-5.59,13.65-2.08,27.69-4.57,39.87-11.43a57.69,57.69,0,0,0,8.05-5.53c1.51-1.23-.62-3.3-2.12-2.12-17.74,13.94-42.22,8.15-62.66,6.22-11.91-1.13-23.46-.58-34.88,3.18-10.93,3.61-21.25,8.89-31.92,13.16a381.9,381.9,0,0,1-132.53,27,378,378,0,0,1-76.35-5.94c-1.89-.34-2.7,2.55-.8,2.89Z"/><path class="cls-3" d="M67,41.21c51.3,3.15,101.53-9.49,151.83-17.41,2.91-.46,6.44-1.38,9,.57,1.7,1.29,2.34,3.4,2.67,5.44.71,4.31.12,8.73.59,13.07,1,9.16,7.81,16.56,15.81,20.53,10.45,5.19,22.65,5.44,34,6.41l38.81,3.3c48.08,4.09,98.34,9.51,145.15-5.56,5.7-1.84,11.59-5,17.64-5.33s11.85,2.85,17.47,4.43a131.52,131.52,0,0,0,32.74,4.43c22.83.5,45.52-2.93,68.34-2.83,11.56,0,23.16,1,34.35,4,10.36,2.75,20.09,7.31,29.59,12.2,17.66,9.11,35.43,20.23,55.55,22.63a60.47,60.47,0,0,0,15.09-.11c1.89-.26,1.91-3.26,0-3-21.37,2.84-40.89-7.21-59.21-16.9-9-4.77-18-9.61-27.53-13.44a114,114,0,0,0-31.41-7.59c-22.72-2.29-45.5.83-68.2,1.8-11.57.49-23.26.49-34.74-1.19a107.67,107.67,0,0,1-16-3.54c-5.24-1.61-10.48-4.15-16.09-3.9-5.81.25-11.27,3.05-16.69,4.86A178.57,178.57,0,0,1,448.3,69,227.73,227.73,0,0,1,412,73.89c-24.61,1.47-49.27-.19-73.8-2.21Q319.11,70.1,300,68.44c-12.94-1.1-26.25-1.42-39-3.74-10.69-2-22.56-7.2-26.15-18.42-2.28-7.15,1.44-17.16-4-23.23-2.85-3.18-7-3-10.91-2.45-6.38,1-12.75,2.06-19.11,3.17-12.54,2.18-25.05,4.5-37.59,6.66-25.44,4.37-51.11,8.06-77,8.29q-9.66.09-19.28-.51c-1.93-.12-1.92,2.88,0,3Z"/><path class="cls-3" d="M837.9,46.21a1073,1073,0,0,0,144.89-2.64c12.07-1,24.09-2.73,36.16-3.7a17.34,17.34,0,0,1,7.71.7c2.55,1,4.64,2.88,6.8,4.49a21.29,21.29,0,0,0,12.55,4.4c9.91.18,18.66-5.31,26-11.38,3.92-3.23,7.64-6.7,11.7-9.76a46.45,46.45,0,0,1,6.49-4.25c1.43-.74,2.89-1.41,4.29-.19a9.49,9.49,0,0,1,1.91,3.27c2.61,5.84,5.36,11.6,8.46,17.2,2.92,5.3,5.93,10.89,9.68,15.65,1.3,1.66,3,3.15,5.29,3.07s3.85-1.76,5.17-3.38c4.32-5.27,8.5-10.65,12.75-16l-2.5-.66a138.64,138.64,0,0,1,1.14,38h3c-1.33-13.36-3.79-30-17.9-35.95-6.85-2.86-14.11-1.06-20.45,2.21-7.43,3.83-14.26,9-21.21,13.62l-22.46,14.93-11.23,7.46c-1.33.89-4,3.32-5.75,2.38-1.57-.84-1.52-3.7-1.6-5.19a97.45,97.45,0,0,1,2-25.32c.5-2.44.87-5.57-1.52-7.18-2.64-1.79-5.7.13-7.79,1.85C1016,62.7,1000.79,76.09,985.43,89.2l1.82-.24c-3.24-2.42-3.2-7.34-3.82-11a18,18,0,0,0-4.67-9.7c-5.61-5.87-14.17-7.61-22-6.57-10.37,1.38-20.12,6.42-29.79,10.14q-15.25,5.85-30.76,11-7.93,2.64-16,5.11c-2.23.68-4.68,1.75-7,1.81-2.82.08-3.82-2-4.48-4.36-1-3.56-2-6.74-4.93-9.21a22.2,22.2,0,0,0-9.35-4.38,60.46,60.46,0,0,0-11.31-1.35l-16.78-.75-33.56-1.5-76.35-3.4c-1.93-.09-1.92,2.91,0,3l67.12,3,33.56,1.5c10.4.47,21,.42,31.31,1.53a29.34,29.34,0,0,1,11,3c3.53,1.94,5.19,4.75,6.19,8.55.89,3.37,2.26,6.69,6.1,7.31a13.32,13.32,0,0,0,5.83-.76c2.74-.8,5.47-1.67,8.19-2.53q15.39-4.84,30.55-10.38c10.09-3.69,20-8,30.08-11.58,9.4-3.34,21-5.32,29.22,2,3.47,3.1,4.56,7,5.22,11.39.62,4.11,1.37,8.1,4.89,10.72a1.52,1.52,0,0,0,1.82-.23l38.73-33,4.48-3.83c1.55-1.32,3.14-3.1,5.06-3.86,2.36-.92,2.55,1.28,2.28,3-.32,2-.82,3.91-1.15,5.89a83.64,83.64,0,0,0-1,23.05c.29,2.42,1.11,5.11,3.6,6.06,3.21,1.22,6.34-1.5,8.82-3.14l21.41-14.23,21-14c6.21-4.12,12.67-9,20.19-10.34,8-1.4,15.09,3.22,19.21,9.86,4.5,7.23,5.34,16,6.17,24.31a1.5,1.5,0,0,0,3,0,141.31,141.31,0,0,0-1.25-38.8,1.51,1.51,0,0,0-2.51-.66l-11.22,14.06c-1.15,1.44-3,4.89-5.29,4.35s-3.91-4.27-5.06-6.06q-4.65-7.26-8.66-14.89c-2.49-4.76-4.53-9.71-6.91-14.51a7.89,7.89,0,0,0-3.58-3.95c-2.24-1-4.53-.05-6.53,1.06a75.21,75.21,0,0,0-12,8.78c-7.67,6.53-15.32,13.66-25.58,15.61a19.18,19.18,0,0,1-13.87-2.2c-4.27-2.66-7.52-6.27-12.76-6.93-5.41-.68-11.15.63-16.52,1.22q-9.1,1-18.24,1.84Q954,43.26,918.3,44.17q-40.2,1-80.4-1c-1.93-.09-1.93,2.91,0,3Z"/><path class="cls-1" d="M607,41.75l13,5.3a1.51,1.51,0,0,0,1.85-1,1.55,1.55,0,0,0-1-1.84l-13-5.3a1.5,1.5,0,0,0-1.84,1,1.52,1.52,0,0,0,1,1.84Z"/><path class="cls-1" d="M729.67,21.43A155.17,155.17,0,0,0,798.6,55.8c27.41,5.88,53.95,2.65,81-3.49,15.54-3.53,31.12-7.48,47.07-8.54,15.47-1,29.71,1.7,44.2,6.95C1000,61.31,1031.15,64.55,1062,66.5c15.36,1,32.07,1.8,47.07-2.36,10.23-2.85,20.58-8.94,22.41-20.23.3-1.87-2.5-2.72-2.9-.8l-2.9,14c-.28,1.31,1.49,2.74,2.5,1.46l25.08-31.87-2.56-1.06c.78,9.65,1.53,19.31,2.34,29,.41,4.89.66,11.39,5.73,13.86,6,2.93,12-2.6,16.09-6.34q11-10,22-20.15l-2.56-1.06c-1.07,10.13,9.39,19.88,19.46,15.95,8.48-3.31,11.64-14.42,7-21.95a1.52,1.52,0,0,0-2.06-.53,44.62,44.62,0,0,0-15.59,18.3h2.59c-6.33-14.26-22.8-20.23-37.58-18.65-19,2-34.35,15.83-48,28.06l2.56,1.06c-1.65-23.2-20.65-39-41.79-45.38-27-8.11-53.6.68-77.42,14-14,7.83-27.21,17-40.83,25.5a304.46,304.46,0,0,1-47.16,24.19q-12.6,5.08-25.62,9c-4.55,1.36-9.34,3.12-14.13,2.68-4.41-.4-8.31-2.79-12.38-4.39-16.58-6.54-35-7.83-52.53-10.27Q698.17,62.72,585.45,47c-75.32-10.4-150.7-20.85-226.25-29.4-37-4.18-73.82-5.71-110.56,1.43-37.07,7.21-73.56,18.54-109.79,29.09q-13.59,4-27.16,8c-1.84.55-1.06,3.45.8,2.89C147.88,48.47,183.41,38.2,219.17,29c18.18-4.7,36.56-8.87,55.26-10.77,18.18-1.85,36.51-1.61,54.72-.36,37,2.53,73.79,8.12,110.53,12.82Q496.35,37.9,553,45.58C626.05,55.51,699.08,65.86,772.13,76q27.61,3.85,55.23,7.7a209.62,209.62,0,0,1,25.74,4.74c7.34,2,14.4,6.65,21.92,7.64,7.34,1,15.57-2.67,22.43-4.91q11.56-3.76,22.79-8.47a308.5,308.5,0,0,0,44-22.89c26.15-16.31,52.43-37,83.77-41.69,23.82-3.57,53.37,5.34,66.22,27a40.68,40.68,0,0,1,5.53,18,1.52,1.52,0,0,0,2.56,1.06c12.49-11.22,26.21-23.71,43.33-26.81,14.42-2.61,31.23,2.67,37.5,16.8a1.51,1.51,0,0,0,2.59,0A41.82,41.82,0,0,1,1220.25,37l-2-.54c3.58,5.83,1.45,14.24-4.85,17.31-8.32,4-16.91-4.58-16-12.83.14-1.38-1.69-1.86-2.56-1.06l-14.93,13.67c-3.37,3.09-12.41,14.2-17.67,12.77-2-.55-4.66-3.59-5.34-5.53a21.92,21.92,0,0,1-.68-5.12c-.28-3.1-.5-6.21-.75-9.31l-1.67-20.68c-.1-1.13-1.68-2.18-2.57-1.06l-25.07,31.87,2.51,1.46,2.91-14-2.9-.8c-1.93,11.9-14,17-24.63,19.16-14.29,2.87-29.66,2.09-44.1,1.09-29.95-2.07-59.88-5.26-88.21-15.53-12.79-4.64-25.43-7.55-39.11-7.31-13.46.24-26.77,2.82-39.86,5.73-27.52,6.11-54.35,12.53-82.7,8.54a152.31,152.31,0,0,1-78.19-35.48c-1.45-1.26-3.58.85-2.12,2.12Z"/><path class="cls-4" d="M731.85-4.74c0,.1-.27,0,.09-.12a1.23,1.23,0,0,1,.54-.13c.57.07,1,.84,1.24,1.28a57.55,57.55,0,0,1,2.47,5.83l5.18,12.64a1.57,1.57,0,0,0,1.85,1.05,1.51,1.51,0,0,0,1-1.85q-3.53-8.58-7-17.16c-.84-2-2-4.59-4.54-4.78-2.17-.16-4.42,1.76-3.73,4,.56,1.84,3.46,1.06,2.9-.8Z"/><path class="cls-4" d="M760.53,11c1,15.72,5.11,32.38,16.37,44,10.14,10.49,26,16.21,40,10.71,7.31-2.85,13.42-7.82,19.79-12.26,1.65-1.15,3.32-2.28,5-3.3,1.54-.91,3.51-2,5.16-.74,2.23,1.68,2.8,5.32,3.84,7.75,2.61,6.13,8.77,9.5,15.17,10.3,7.87,1,15.4-2.27,22.19-5.89,8.08-4.3,16-8.7,24.4-12.46q6.15-2.78,12.45-5.21c4.18-1.62,8.73-3.8,13.29-3.82,5.34,0,9.08,3.6,11.74,7.86,2.9,4.64,4.89,9.76,7.69,14.45s6.34,8.72,11.51,10.49c7.8,2.67,16.18-1,23-4.63,8.36-4.47,16.56-9.25,24.83-13.88,6.36-3.56,12.75-7.47,20.09-8.55,3-.44,6.24-.36,8.92,1.12a11.07,11.07,0,0,1,5,6.84c1.59,5.24,1.18,11.2,3.85,16.09a9.16,9.16,0,0,0,5.93,4.62c3.85.89,7.65-.89,10.77-3a112.41,112.41,0,0,0,19.49-17.29,13.72,13.72,0,0,1,3.43-3.2c.64-.35,2.4-1.26,2.59-.16.33,1.9,3.22,1.1,2.89-.79-.51-2.95-3.67-3.06-5.93-2.14-3.37,1.37-5.52,4.69-8,7.21q-4.39,4.5-9.23,8.55c-3.31,2.76-6.93,6.11-11.07,7.54-3,1-6.31.42-8-2.41-1.36-2.23-1.78-5-2.19-7.51-.9-5.58-1.53-11.88-6.23-15.71-4.9-4-11.8-3.33-17.48-1.62-7.5,2.26-14.2,6.62-21,10.42-8,4.46-15.84,9.42-24.14,13.26-6.75,3.12-15.07,5.05-21.28-.26-8-6.89-9.29-18.74-16.87-26-4.68-4.49-10.73-5-16.78-3.12a194.78,194.78,0,0,0-25.41,10.42c-8,3.79-15.56,8.43-23.53,12.23-6.82,3.25-14.68,5.32-21.94,2.23a13.87,13.87,0,0,1-7.18-6.5c-1.27-2.61-1.79-5.58-3.51-8a6.35,6.35,0,0,0-8-2.12c-3.65,1.58-7,4.27-10.17,6.58-6.31,4.54-12.79,9.4-20.52,11.13-7.19,1.61-14.8.16-21.32-3.11C775.51,53.75,767.88,38.49,765,22.89A99.59,99.59,0,0,1,763.53,11c-.13-1.92-3.13-1.94-3,0Z"/><path class="cls-4" d="M1115.19,40.21c0,5.33,0,10.87,2.37,15.79,1.86,4,5.32,7.34,9.68,8.25,1.88.4,2.69-2.5.8-2.89-3.77-.79-6.52-3.74-8-7.17-1.92-4.35-1.83-9.33-1.82-14a1.5,1.5,0,0,0-3,0Z"/><path class="cls-4" d="M1136.29,51a201.5,201.5,0,0,0-11.08,60.39h3c-3.91-44.82-41-79.44-82.22-92.53-25.8-8.18-53.75-8.1-80.24-3.7A286.8,286.8,0,0,0,923,25.88Q913,29.2,903.1,33.07c-7.26,2.83-14.47,7.34-22.36,4.43-6.14-2.26-11.94-5-18.29-6.73a120,120,0,0,0-19.9-3.59A171.35,171.35,0,0,0,802,28.52c-28.37,4-55.5,13.41-83.13,20.63C704,53,689,56.29,673.77,57.63a154.23,154.23,0,0,1-21.28.52C649,58,645.22,57.71,642,56.06c-3.65-1.89-5.43-5.37-7.4-8.76-5.37-9.3-13.65-12.93-24.23-13-13.4-.14-27.11,3.21-40.29,5.24q-105,16.16-209.68,33.8l1.69,2.21c4.92-8.41-.05-18.79-8-23.25-11.56-6.48-27.52-4.15-40.17-4.15l-97.57,0c-11.4,0-30.63.4-34.17-13.65-.47-1.87-3.36-1.08-2.89.79,2.93,11.65,15.77,14.84,26.28,15.64,8.33.64,16.79.22,25.13.22h30.61l59.3,0c9,0,18.8-1,27.46,1.81,8.42,2.7,16.75,12,11.45,21.07a1.52,1.52,0,0,0,1.69,2.21q90.71-15.28,181.57-29.45,23.43-3.64,46.86-7.23c11.21-1.71,26-5.36,36.14,1.73,4.83,3.38,6.34,9,9.91,13.37,3.19,3.9,7.56,5.55,12.45,6.18,13.13,1.72,27.09.08,40.1-2,55.23-8.74,109.88-38.68,167-26.71a108.18,108.18,0,0,1,20.2,6.36c4.7,2,9.07,4,14.27,2.86,6.53-1.4,12.9-4.91,19.15-7.26,7.17-2.7,14.41-5.2,21.74-7.45,27.14-8.32,55.68-13.29,84.13-10.81,51.42,4.49,105.69,40.33,110.5,95.54a1.5,1.5,0,0,0,3,0,198.79,198.79,0,0,1,11-59.59c.64-1.83-2.26-2.62-2.89-.8Z"/><path d="M134.72,48.85a1752.23,1752.23,0,0,0,249.43-10q34.26-3.86,68.35-9c1.66-.25,1.28-3.09-.4-2.94L222.57,47.37a1.5,1.5,0,0,0,0,3q184.64,7.26,369.48,6.11,52.63-.33,105.26-1.36l-.76-2.79c-53.84,30.52-121.86,28-171.08,67.84-1.12.9-.09,2.46,1.06,2.56a1494.85,1494.85,0,0,0,386.76-17.34q54.11-9.56,107.4-23.11c1.78-.45,1.17-2.74-.4-2.94A222.84,222.84,0,0,0,897.58,98.59c-1.5.7-.55,2.65.75,2.8a981.52,981.52,0,0,0,253.78-5.6q36.21-5.54,71.9-13.8a1.51,1.51,0,0,0,0-2.9c-53.48-12-108.49-10.89-163-9.63v3A1001.25,1001.25,0,0,0,1177.42,62c18.49-2.76,37.36-5.41,55.5-10,11.32-2.88,23.78-8.23,26.93-20.6a1.51,1.51,0,0,0-1-1.85Q1076.06,2.23,892-14.95q-52-4.83-104.14-8.86v3C857.72-28.16,927.69-35.6,996.51-50c1.73-.36,1.22-2.86-.4-3q-120.33-6.41-240.9-4.83-34.58.46-69.15,1.59a1.5,1.5,0,0,0,0,3q127.41.06,254.81,2.23c10.81.18,21.74,0,32.52.82,9.92.79,20,3.17,26.46,11.27l.3-2.36A976.37,976.37,0,0,0,897.94,13c-15,9.16-30.81,18.16-44.35,29.42C843.48,50.83,832.77,63,834.4,77.15c1.7,14.63,15.32,22.72,27,29.19A540,540,0,0,0,912.26,131c34.59,14.7,70.39,26.35,106.38,37.09C1062,181,1105.56,193.2,1149,205.69V202.8l-52.75,8.57c-1.2.2-1.32,1.75-.66,2.51l10.75,12.28c1.28,1.46,3.39-.67,2.12-2.12l-10.75-12.28-.66,2.5,52.74-8.57c1.53-.25,1.32-2.51,0-2.89-70.41-20.23-142.07-38.25-210.65-64.23C922,132.06,905.05,124.93,888.5,117q-12-5.8-23.78-12.21c-6.84-3.75-14-7.53-19.56-13.06-30-29.59,29.11-60.53,49-72.82a975.2,975.2,0,0,1,107.55-57.56A1.52,1.52,0,0,0,1002-41c-9.75-12.17-26.61-12.35-40.9-12.61q-33.11-.62-66.22-1.08Q828.06-55.66,761.27-56q-37.6-.21-75.21-.22v3Q806.5-57.12,927-53q34.56,1.19,69.1,3l-.4-2.94C927.16-38.55,857.45-31.13,787.86-23.81a1.5,1.5,0,0,0,0,3Q970.77-6.67,1152.72,17.56q52.69,7,105.28,14.9l-1-1.84c-3.72,14.67-21.49,18-34.22,20.53q-26.16,5.18-52.58,8.94a993.31,993.31,0,0,1-109.09,9.37c-1.92.06-1.93,3.05,0,3C1115.25,71.2,1170,70.08,1223.22,82v-2.9a978.42,978.42,0,0,1-252.93,24.45q-36.06-1.25-72-5.15l.76,2.79a220.09,220.09,0,0,1,121.2-18.84l-.39-3a1492.24,1492.24,0,0,1-383.64,45.69q-54.94-.64-109.73-5.35l1.06,2.56c48.87-39.52,116.93-37,170.48-67.37a1.52,1.52,0,0,0-.76-2.8q-184.75,3.57-369.53-1.28-52.62-1.4-105.21-3.47v3L452.1,29.82l-.4-2.95A1747.68,1747.68,0,0,1,204.36,46.64q-34.83.3-69.64-.79c-1.93-.06-1.93,2.94,0,3Z"/></svg>